<svg xmlns="http://www.w3.org/2000/svg" xmlns:xlink="http://www.w3.org/1999/xlink" version="1.1" id="Capa_1" x="0px" y="0px" viewBox="0 0 26.775 26.775" style="enable-background:new 0 0 26.775 26.775;" xml:space="preserve" width="12px" height="12px">
<g>
	<path d="M12.86,26.398L4.6,16.416c0,0-1.25-1.182,0.107-1.182c1.363,0,4.656,0,4.656,0s0-0.799,0-2.025c0-3.516,0-9.9,0-12.502   c0,0-0.188-0.707,0.887-0.707c1.072,0,5.781,0,6.545,0c0.768,0,0.748,0.592,0.748,0.592c0,2.529,0,9.135,0,12.527   c0,1.1,0,1.816,0,1.816s2.639,0,4.299,0c1.655,0,0.408,1.238,0.408,1.238s-7.027,9.326-8.002,10.305   C13.536,27.191,12.86,26.398,12.86,26.398z" fill="#60b804"/>
	<g>
	</g>
	<g>
	</g>
	<g>
	</g>
	<g>
	</g>
	<g>
	</g>
	<g>
	</g>
	<g>
	</g>
	<g>
	</g>
	<g>
	</g>
	<g>
	</g>
	<g>
	</g>
	<g>
	</g>
	<g>
	</g>
	<g>
	</g>
	<g>
	</g>
</g>
<g>
</g>
<g>
</g>
<g>
</g>
<g>
</g>
<g>
</g>
<g>
</g>
<g>
</g>
<g>
</g>
<g>
</g>
<g>
</g>
<g>
</g>
<g>
</g>
<g>
</g>
<g>
</g>
<g>
</g>
</svg>
